  0
SECTION
  2
HEADER
  9
$ACADVER
  1
AC1015
  9
$INSUNITS
 70
4
  9
$MEASUREMENT
 70
1
  9
$EXTMIN
 10
-10.0
 20
-10.0
 30
0.0
  9
$EXTMAX
 10
220.0
 20
170.0
 30
0.0
  0
ENDSEC
  0
SECTION
  2
TABLES
  0
TABLE
  2
LTYPE
 70
3
  0
LTYPE
  2
CONTINUOUS
 70
0
  3
Solid line
 72
65
 73
0
 40
0.0
  0
LTYPE
  2
DASHED
 70
0
  3
Dashed
 72
65
 73
2
 40
6.0
 49
5.0
 49
-1.0
  0
LTYPE
  2
CENTER
 70
0
  3
Center line
 72
65
 73
4
 40
14.0
 49
10.0
 49
-2.0
 49
2.0
 49
-2.0
  0
ENDTAB
  0
TABLE
  2
LAYER
 70
6
  0
LAYER
  2
OUTLINE
 70
0
 62
7
  6
CONTINUOUS
  0
LAYER
  2
HIDDEN
 70
0
 62
8
  6
DASHED
  0
LAYER
  2
CENTERLINE
 70
0
 62
1
  6
CENTER
  0
LAYER
  2
DIMENSION
 70
0
 62
3
  6
CONTINUOUS
  0
LAYER
  2
TITLEBLOCK
 70
0
 62
7
  6
CONTINUOUS
  0
LAYER
  2
ANNOTATION
 70
0
 62
2
  6
CONTINUOUS
  0
ENDTAB
  0
ENDSEC
  0
SECTION
  2
ENTITIES
  0
COMMENT
  1
=== BRACKET PART — FRONT VIEW ===
  0
LINE
  8
OUTLINE
 10
20.0
 20
20.0
 30
0.0
 11
120.0
 21
20.0
 31
0.0
  0
LINE
  8
OUTLINE
 10
120.0
 20
20.0
 30
0.0
 11
120.0
 21
80.0
 31
0.0
  0
LINE
  8
OUTLINE
 10
120.0
 20
80.0
 30
0.0
 11
20.0
 21
80.0
 31
0.0
  0
LINE
  8
OUTLINE
 10
20.0
 20
80.0
 30
0.0
 11
20.0
 21
20.0
 31
0.0
  0
CIRCLE
  8
OUTLINE
 10
40.0
 20
35.0
 30
0.0
 40
7.5
  0
CIRCLE
  8
OUTLINE
 10
100.0
 20
35.0
 30
0.0
 40
7.5
  0
CIRCLE
  8
OUTLINE
 10
40.0
 20
65.0
 30
0.0
 40
7.5
  0
CIRCLE
  8
OUTLINE
 10
100.0
 20
65.0
 30
0.0
 40
7.5
  0
CIRCLE
  8
HIDDEN
 10
40.0
 20
35.0
 30
0.0
 40
4.0
  0
CIRCLE
  8
HIDDEN
 10
100.0
 20
35.0
 30
0.0
 40
4.0
  0
CIRCLE
  8
HIDDEN
 10
40.0
 20
65.0
 30
0.0
 40
4.0
  0
CIRCLE
  8
HIDDEN
 10
100.0
 20
65.0
 30
0.0
 40
4.0
  0
LINE
  8
CENTERLINE
 10
40.0
 20
15.0
 30
0.0
 11
40.0
 21
85.0
 31
0.0
  0
LINE
  8
CENTERLINE
 10
100.0
 20
15.0
 30
0.0
 11
100.0
 21
85.0
 31
0.0
  0
LINE
  8
CENTERLINE
 10
10.0
 20
35.0
 30
0.0
 11
130.0
 21
35.0
 31
0.0
  0
LINE
  8
CENTERLINE
 10
10.0
 20
65.0
 30
0.0
 11
130.0
 21
65.0
 31
0.0
  0
COMMENT
  1
=== HORIZONTAL DIMENSION — WIDTH 100mm ===
  0
LINE
  8
DIMENSION
 10
20.0
 20
10.0
 30
0.0
 11
120.0
 21
10.0
 31
0.0
  0
LINE
  8
DIMENSION
 10
20.0
 20
8.0
 30
0.0
 11
20.0
 21
22.0
 31
0.0
  0
LINE
  8
DIMENSION
 10
120.0
 20
8.0
 30
0.0
 11
120.0
 21
22.0
 31
0.0
  0
TEXT
  8
DIMENSION
 10
70.0
 20
7.0
 30
0.0
 40
3.5
  1
100
 72
1
  0
COMMENT
  1
=== VERTICAL DIMENSION — HEIGHT 60mm ===
  0
LINE
  8
DIMENSION
 10
130.0
 20
20.0
 30
0.0
 11
130.0
 21
80.0
 31
0.0
  0
LINE
  8
DIMENSION
 10
118.0
 20
20.0
 30
0.0
 11
132.0
 21
20.0
 31
0.0
  0
LINE
  8
DIMENSION
 10
118.0
 20
80.0
 30
0.0
 11
132.0
 21
80.0
 31
0.0
  0
TEXT
  8
DIMENSION
 10
133.0
 20
50.0
 30
0.0
 40
3.5
  1
60
 72
1
  0
COMMENT
  1
=== HOLE SPACING DIMENSIONS ===
  0
LINE
  8
DIMENSION
 10
40.0
 20
90.0
 30
0.0
 11
100.0
 21
90.0
 31
0.0
  0
LINE
  8
DIMENSION
 10
40.0
 20
82.0
 30
0.0
 11
40.0
 21
92.0
 31
0.0
  0
LINE
  8
DIMENSION
 10
100.0
 20
82.0
 30
0.0
 11
100.0
 21
92.0
 31
0.0
  0
TEXT
  8
DIMENSION
 10
70.0
 20
92.0
 30
0.0
 40
3.0
  1
60
 72
1
  0
COMMENT
  1
=== VERTICAL HOLE SPACING — 30mm ===
  0
LINE
  8
DIMENSION
 10
140.0
 20
35.0
 30
0.0
 11
140.0
 21
65.0
 31
0.0
  0
LINE
  8
DIMENSION
 10
138.0
 20
35.0
 30
0.0
 11
142.0
 21
35.0
 31
0.0
  0
LINE
  8
DIMENSION
 10
138.0
 20
65.0
 30
0.0
 11
142.0
 21
65.0
 31
0.0
  0
TEXT
  8
DIMENSION
 10
143.0
 20
50.0
 30
0.0
 40
3.0
  1
30
 72
1
  0
COMMENT
  1
=== HOLE DIAMETER CALLOUT ===
  0
TEXT
  8
ANNOTATION
 10
48.0
 20
35.0
 30
0.0
 40
2.5
  1
4x %%C15 THRU
  0
TEXT
  8
ANNOTATION
 10
48.0
 20
32.0
 30
0.0
 40
2.5
  1
%%C8 CBORE x 3 DEEP
  0
COMMENT
  1
=== SURFACE FINISH SYMBOL ===
  0
TEXT
  8
ANNOTATION
 10
75.0
 20
75.0
 30
0.0
 40
2.5
  1
Ra 3.2
  0
COMMENT
  1
=== TITLE BLOCK ===
  0
LINE
  8
TITLEBLOCK
 10
0.0
 20
0.0
 30
0.0
 11
210.0
 21
0.0
 31
0.0
  0
LINE
  8
TITLEBLOCK
 10
210.0
 20
0.0
 30
0.0
 11
210.0
 21
160.0
 31
0.0
  0
LINE
  8
TITLEBLOCK
 10
210.0
 20
160.0
 30
0.0
 11
0.0
 21
160.0
 31
0.0
  0
LINE
  8
TITLEBLOCK
 10
0.0
 20
160.0
 30
0.0
 11
0.0
 21
0.0
 31
0.0
  0
LINE
  8
TITLEBLOCK
 10
130.0
 20
0.0
 30
0.0
 11
130.0
 21
30.0
 31
0.0
  0
LINE
  8
TITLEBLOCK
 10
130.0
 20
30.0
 30
0.0
 11
210.0
 21
30.0
 31
0.0
  0
LINE
  8
TITLEBLOCK
 10
130.0
 20
15.0
 30
0.0
 11
210.0
 21
15.0
 31
0.0
  0
LINE
  8
TITLEBLOCK
 10
170.0
 20
0.0
 30
0.0
 11
170.0
 21
30.0
 31
0.0
  0
TEXT
  8
TITLEBLOCK
 10
132.0
 20
25.0
 30
0.0
 40
4.0
  1
PART NAME:
  0
TEXT
  8
ANNOTATION
 10
132.0
 20
19.0
 30
0.0
 40
4.5
  1
MOUNTING BRACKET
  0
TEXT
  8
TITLEBLOCK
 10
172.0
 20
25.0
 30
0.0
 40
4.0
  1
DWG No:
  0
TEXT
  8
ANNOTATION
 10
172.0
 20
19.0
 30
0.0
 40
4.5
  1
MB-001
  0
TEXT
  8
TITLEBLOCK
 10
132.0
 20
10.0
 30
0.0
 40
4.0
  1
SCALE:
  0
TEXT
  8
ANNOTATION
 10
132.0
 20
4.0
 30
0.0
 40
4.5
  1
1:1
  0
TEXT
  8
TITLEBLOCK
 10
172.0
 20
10.0
 30
0.0
 40
4.0
  1
MATERIAL:
  0
TEXT
  8
ANNOTATION
 10
172.0
 20
4.0
 30
0.0
 40
4.5
  1
Al 6061-T6
  0
TEXT
  8
ANNOTATION
 10
5.0
 20
108.0
 30
0.0
 40
4.0
  1
TOLERANCES UNLESS NOTED:
  0
TEXT
  8
ANNOTATION
 10
5.0
 20
103.0
 30
0.0
 40
3.5
  1
LINEAR: +/- 0.1 mm (ISO 2768-m)
  0
TEXT
  8
ANNOTATION
 10
5.0
 20
98.0
 30
0.0
 40
3.5
  1
ANGULAR: +/- 0.5 deg
  0
TEXT
  8
ANNOTATION
 10
5.0
 20
93.0
 30
0.0
 40
3.5
  1
HOLES: H7 (+0.015 / 0.000 mm)
  0
TEXT
  8
ANNOTATION
 10
5.0
 20
88.0
 30
0.0
 40
3.5
  1
SURFACE FINISH: Ra 3.2 UNLESS NOTED
  0
TEXT
  8
ANNOTATION
 10
5.0
 20
83.0
 30
0.0
 40
3.5
  1
DEBURR ALL SHARP EDGES 0.3 MAX
  0
TEXT
  8
ANNOTATION
 10
5.0
 20
155.0
 30
0.0
 40
3.0
  1
THIRD ANGLE PROJECTION
  0
ENDSEC
  0
EOF
